<?xml version="1.0" standalone="no"?>
        <!DOCTYPE svg PUBLIC "-//W3C//DTD SVG 1.1//EN" 
        "http://www.w3.org/Graphics/SVG/1.1/DTD/svg11.dtd"> <svg xmlns="http://www.w3.org/2000/svg" class="like" viewBox="0 0 16 16" id="IconChangeColor"> <path d="M2 1a1 1 0 0 0-1 1v8a1 1 0 0 0 1 1h9.586a2 2 0 0 1 1.414.586l2 2V2a1 1 0 0 0-1-1H2zm12-1a2 2 0 0 1 2 2v12.793a.5.5 0 0 1-.854.353l-2.853-2.853a1 1 0 0 0-.707-.293H2a2 2 0 0 1-2-2V2a2 2 0 0 1 2-2h12z" id="mainIconPathAttribute" stroke-width="0" stroke="#ff0000"></path> </svg> 