<?xml version="1.0" encoding="utf-8"?>
<!-- Generator: Adobe Illustrator 24.1.1, SVG Export Plug-In . SVG Version: 6.00 Build 0)  -->
<svg version="1.1" id="Layer_1" xmlns="http://www.w3.org/2000/svg" xmlns:xlink="http://www.w3.org/1999/xlink" x="0px" y="0px"
	 viewBox="0 0 512 512" style="enable-background:new 0 0 512 512;" xml:space="preserve">
<g>
	<path d="M56,312c-14.4,0-29.6-6.4-40-16.8C5.6,284.8,0,270.4,0,256s6.4-28.8,16-40c10.4-10.4,24.8-16,40-16
		c14.4,0,28.8,6.4,39.2,16c10.41,10.4,16.8,24.8,16.8,40c0,14.4-6.4,28.8-16.8,39.2C84.8,305.6,70.4,312,56,312z M295.2,295.2
		C305.6,284.8,312,270.4,312,256s-6.4-28.8-16.8-40c-10.4-10.4-24.8-16-39.2-16s-29.6,6.4-40,16c-10.4,10.4-16,24.8-16,40
		c0,14.4,6.4,28.8,16,39.2c10.4,10.4,24.8,16.8,40,16.8C270.4,312,284.8,305.6,295.2,295.2z M495.2,295.2
		C505.6,284.8,512,270.4,512,256s-6.4-28.8-16.8-40c-10.4-10.4-24.8-16-39.2-16s-29.6,6.4-40,16c-10.4,10.4-16,24.8-16,40
		c0,14.4,6.4,28.8,16,39.2c10.4,10.4,24.8,16.8,40,16.8C470.4,312,484.8,305.6,495.2,295.2z"/>
</g>
</svg>
